<?xml version="1.0" encoding="UTF-8"?>
<svg width="248px" height="121px" viewBox="0 0 248 121" version="1.1" xmlns="http://www.w3.org/2000/svg" xmlns:xlink="http://www.w3.org/1999/xlink">
    <title>logo</title>
    <defs>
        <filter id="filter-1">
            <feColorMatrix in="SourceGraphic" type="matrix" values="0 0 0 0 0.951342 0 0 0 0 0.951342 0 0 0 0 0.951342 0 0 0 1.000000 0"></feColorMatrix>
        </filter>
    </defs>
    <g id="Page-1" stroke="none" stroke-width="1" fill="none" fill-rule="evenodd">
        <g filter="url(#filter-1)" id="logo">
            <g>
                <path d="M240.419183,2.13162821e-14 L240.419183,24.2 L190.454707,24.2 L190.043505,24.2069143 C188.135283,24.2714476 186.377146,24.7877143 184.769094,25.7557143 C183.046181,26.7928571 181.725281,28.1757143 180.806394,29.9042857 C179.887507,31.6328571 179.428064,33.5342857 179.428064,35.6085714 C179.428064,37.6828571 179.887507,39.5554762 180.806394,41.2264286 C181.725281,42.897381 183.046181,44.2514286 184.769094,45.2885714 C186.377146,46.2565714 188.135283,46.7728381 190.043505,46.8373714 L190.454707,46.8442857 L209.923623,46.8442857 L210.642149,46.8485903 C218.036485,46.9375509 224.487622,48.4054018 229.99556,51.2521429 C235.681172,54.1907143 240.103316,58.2816667 243.261989,63.525 C246.420663,68.7683333 248,74.9047619 248,81.9342857 C248,90.2314286 246.363233,97.2897619 243.089698,103.109286 C239.816163,108.92881 235.422735,113.365476 229.909414,116.419286 C224.57987,119.371302 218.71367,120.89651 212.310815,120.99491 L211.646536,121 L96,121 L96,118 L98,118 C100.142195,118 101.891079,116.316032 101.995105,114.19964 L102,114 L102,104 C102,101.790861 100.209139,100 98,100 L98,100 L96,100 L96,96.8 L207.511545,96.8 L207.939581,96.7932478 C210.066302,96.7257254 211.991119,96.1517857 213.714032,95.0714286 C215.551806,93.9190476 217.016282,92.4209524 218.10746,90.5771429 C219.198638,88.7333333 219.744227,86.7166667 219.744227,84.5271429 C219.744227,82.222381 219.198638,80.1480952 218.10746,78.3042857 C217.016282,76.4604762 215.551806,74.962381 213.714032,73.81 C211.991119,72.7296429 210.066302,72.1557031 207.939581,72.0881808 L207.511545,72.0814286 L188.904085,72.0814286 L188.181527,72.0764957 C181.458684,71.9844148 175.324759,70.603202 169.779751,67.9328571 C164.036708,65.1671429 159.470989,61.105 156.082593,55.7464286 C152.694198,50.3878571 151,43.9633333 151,36.4728571 C151,29.097619 152.608052,22.7019048 155.824156,17.2857143 C159.040261,11.8695238 163.404973,7.63452381 168.918295,4.58071429 C174.247839,1.62869841 180.114039,0.103490212 186.516894,0.00508968254 L187.181172,2.13162821e-14 L240.419183,2.13162821e-14 Z M123,100 L113,100 C110.790861,100 109,101.790861 109,104 L109,104 L109,114 C109,116.209139 110.790861,118 113,118 L113,118 L123,118 C125.209139,118 127,116.209139 127,114 L127,114 L127,104 C127,101.790861 125.209139,100 123,100 L123,100 Z M148,100 L138,100 C135.790861,100 134,101.790861 134,104 L134,104 L134,114 C134,116.209139 135.790861,118 138,118 L138,118 L148,118 C150.209139,118 152,116.209139 152,114 L152,114 L152,104 C152,101.790861 150.209139,100 148,100 L148,100 Z M173,100 L163,100 C160.790861,100 159,101.790861 159,104 L159,104 L159,114 C159,116.209139 160.790861,118 163,118 L163,118 L173,118 C175.209139,118 177,116.209139 177,114 L177,114 L177,104 C177,101.790861 175.209139,100 173,100 L173,100 Z M198,100 L188,100 C185.790861,100 184,101.790861 184,104 L184,104 L184,114 C184,116.209139 185.790861,118 188,118 L188,118 L198,118 C200.209139,118 202,116.209139 202,114 L202,114 L202,104 C202,101.790861 200.209139,100 198,100 L198,100 Z" id="Combined-Shape" fill="#FFFFFF" fill-rule="nonzero"></path>
                <path d="M36.1375546,0 L66.7925764,74.9160156 L68.2074236,74.9160156 L98.8624454,0 L135,0 L135,81 L106.585,81 L106.585153,46.6748047 L105.582969,46.6748047 L76.5786026,120.231934 L58.4213974,120.231934 L29.4170306,46.2612305 L28.4148472,46.2612305 L28.4148472,121 L0,121 L0,0 L36.1375546,0 Z" id="M-letter" fill="#FFFFFF" fill-rule="nonzero"></path>
            </g>
        </g>
    </g>
</svg>